<svg width="16" height="16" viewBox="0 0 16 16" fill="none" xmlns="http://www.w3.org/2000/svg">
<g clip-path="url(#clip0_183:11)">
<path fill-rule="evenodd" clip-rule="evenodd" d="M8 2C9.10457 2 10 1.10457 10 0H14C15.1046 0 16 0.895431 16 2V14C16 15.1046 15.1046 16 14 16H2C0.895431 16 0 15.1046 0 14V2C0 0.895431 0.895431 0 2 0H6C6 1.10457 6.89543 2 8 2ZM9.68198 11.682C9.05264 12.3113 8.25082 12.7399 7.37791 12.9135C6.50499 13.0872 5.60019 12.9981 4.77792 12.6575C3.95566 12.3169 3.25285 11.7401 2.75839 11.0001C2.26392 10.26 2 9.39002 2 8.5C2 7.60998 2.26392 6.73996 2.75839 5.99993C3.25285 5.25991 3.95566 4.68314 4.77792 4.34254C5.60019 4.00195 6.50499 3.91283 7.37791 4.08647C8.25082 4.2601 9.05264 4.68868 9.68198 5.31802L8.266 6.734C7.91672 6.38472 7.47171 6.14686 6.98724 6.05049C6.50277 5.95412 6.00061 6.00358 5.54425 6.19261C5.08789 6.38164 4.69783 6.70175 4.4234 7.11246C4.14898 7.52318 4.0025 8.00604 4.0025 8.5C4.0025 8.99396 4.14898 9.47682 4.4234 9.88754C4.69783 10.2982 5.08789 10.6184 5.54425 10.8074C6.00061 10.9964 6.50277 11.0459 6.98724 10.9495C7.47171 10.8531 7.91672 10.6153 8.266 10.266L9.68198 11.682ZM10 6H11V7H12V6H13V7H14V8H13V9H14V10H13V11H12V10H11V11H10V10H9V9H10V8H9V7H10V6ZM11 8H12V9H11V8Z" fill="#A56FFF"/>
</g>
<defs>
<clipPath id="clip0_183:11">
<rect width="16" height="16" fill="white"/>
</clipPath>
</defs>
</svg>
