<svg width="16" height="16" viewBox="0 0 16 16" fill="none" xmlns="http://www.w3.org/2000/svg">
<path d="M7 14V2L3 6H1V10H3L7 14Z" fill="#FF5252"/>
<path fill-rule="evenodd" clip-rule="evenodd" d="M13.0962 3.05025C11.8772 1.7375 10.2239 1 8.5 1V3.02505C9.64245 3.13983 10.7165 3.64538 11.5355 4.46447C12.4732 5.40215 13 6.67392 13 8C13 9.32608 12.4732 10.5979 11.5355 11.5355C10.7165 12.3546 9.64245 12.8602 8.5 12.975V15C10.2239 15 11.8772 14.2625 13.0962 12.9497C14.3152 11.637 15 9.85651 15 8C15 6.14348 14.3152 4.36301 13.0962 3.05025ZM8.5 10.9581C9.11015 10.8549 9.67797 10.5647 10.1213 10.1213C10.6839 9.55871 11 8.79565 11 8C11 7.20435 10.6839 6.44129 10.1213 5.87868C9.67797 5.43533 9.11015 5.14508 8.5 5.04195V8V10.9581Z" fill="#FF5252"/>
</svg>
