<svg width="16" height="16" viewBox="0 0 16 16" fill="none" xmlns="http://www.w3.org/2000/svg">
<path fill-rule="evenodd" clip-rule="evenodd" d="M4 16C2.89543 16 2 15.1046 2 14V2C2 0.895431 2.89543 0 4 0H10L14 4V14C14 15.1046 13.1046 16 12 16H4ZM12.3891 12.3891C11.6199 13.1583 10.6399 13.6821 9.573 13.8943C8.5061 14.1065 7.40023 13.9976 6.39524 13.5813C5.39025 13.1651 4.53127 12.4601 3.92692 11.5556C3.32257 10.6512 3 9.5878 3 8.5C3 7.4122 3.32257 6.34883 3.92692 5.44436C4.53126 4.53989 5.39025 3.83494 6.39524 3.41866C7.40023 3.00238 8.5061 2.89346 9.573 3.10568C10.6399 3.3179 11.6199 3.84172 12.3891 4.61091L11.0929 5.90715C10.58 5.39433 9.92667 5.04509 9.21537 4.90361C8.50407 4.76212 7.76679 4.83474 7.09676 5.11227C6.42673 5.38981 5.85404 5.8598 5.45113 6.46281C5.04821 7.06582 4.83315 7.77477 4.83315 8.5C4.83315 9.22523 5.04821 9.93418 5.45113 10.5372C5.85404 11.1402 6.42673 11.6102 7.09676 11.8877C7.76679 12.1653 8.50407 12.2379 9.21537 12.0964C9.92667 11.9549 10.58 11.6057 11.0929 11.0929L12.3891 12.3891ZM7 6H8V7H9V6H10V7H11V8H10V9H11V10H10V11H9V10H8V11H7V10H6V9H7V8H6V7H7V6ZM8 8H9V9H8V8Z" fill="white"/>
</svg>
