<svg width="16" height="16" viewBox="0 0 16 16" fill="none" xmlns="http://www.w3.org/2000/svg">
<path fill-rule="evenodd" clip-rule="evenodd" d="M8 16C12.4183 16 16 12.4183 16 8C16 3.58172 12.4183 0 8 0C3.58172 0 0 3.58172 0 8C0 12.4183 3.58172 16 8 16ZM4.67412 3.77772C4.2346 4.43552 4 5.20887 4 6H6C6 5.60444 6.1173 5.21776 6.33706 4.88886C6.55682 4.55996 6.86918 4.30362 7.23463 4.15224C7.60009 4.00087 8.00222 3.96126 8.39018 4.03843C8.77814 4.1156 9.13451 4.30608 9.41421 4.58579C9.69392 4.86549 9.8844 5.22186 9.96157 5.60982C10.0387 5.99778 9.99913 6.39992 9.84776 6.76537C9.69638 7.13082 9.44004 7.44318 9.11114 7.66294C8.78224 7.8827 8.39556 8 8 8H7V11H9V9.87298C9.43299 9.76118 9.84649 9.57697 10.2223 9.32588C10.8801 8.88635 11.3928 8.26164 11.6955 7.53073C11.9983 6.79983 12.0775 5.99556 11.9231 5.21964C11.7688 4.44372 11.3878 3.73098 10.8284 3.17157C10.269 2.61216 9.55629 2.2312 8.78036 2.07686C8.00444 1.92252 7.20017 2.00173 6.46927 2.30448C5.73836 2.60723 5.11365 3.11992 4.67412 3.77772ZM7 12V14H9V12H7Z" fill="white"/>
</svg>
