<svg width="16" height="16" viewBox="0 0 16 16" fill="none" xmlns="http://www.w3.org/2000/svg">
<g clip-path="url(#clip0)">
<path fill-rule="evenodd" clip-rule="evenodd" d="M7.00001 -5.20721e-06V7L4.54931 4.5493C3.86683 5.23178 3.40206 6.10131 3.21377 7.04793C3.02547 7.99456 3.12211 8.97577 3.49147 9.86747C3.86082 10.7592 4.4863 11.5213 5.28882 12.0575C6.09133 12.5938 7.03483 12.88 8 12.88C8.96517 12.88 9.90867 12.5938 10.7112 12.0575C11.5137 11.5213 12.1392 10.7592 12.5085 9.86747C12.8779 8.97577 12.9745 7.99456 12.7862 7.04793C12.5979 6.10131 12.1332 5.23177 11.4507 4.54929L13.6569 2.34312C14.7757 3.46194 15.5376 4.8874 15.8463 6.43925C16.155 7.9911 15.9965 9.59963 15.391 11.0614C14.7855 12.5233 13.7602 13.7727 12.4446 14.6517C11.129 15.5308 9.58225 16 8 16C6.41775 16 4.87103 15.5308 3.55544 14.6517C2.23984 13.7727 1.21446 12.5233 0.608962 11.0614C0.003461 9.59963 -0.154965 7.9911 0.153717 6.43925C0.462398 4.88741 1.22432 3.46195 2.34313 2.34313L1.34713e-05 1.70463e-05L7.00001 -5.20721e-06Z" fill="white"/>
</g>
<defs>
<clipPath id="clip0">
<rect width="16" height="16" fill="white"/>
</clipPath>
</defs>
</svg>
