<svg width="16" height="16" viewBox="0 0 16 16" fill="none" xmlns="http://www.w3.org/2000/svg">
<rect x="3" y="1" width="10" height="14" rx="1" stroke="white" stroke-width="2"/>
<path fill-rule="evenodd" clip-rule="evenodd" d="M5 6C5 5.40666 5.17595 4.82664 5.50559 4.33329C5.83524 3.83994 6.30377 3.45543 6.85195 3.22836C7.40013 3.0013 8.00333 2.94189 8.58527 3.05765C9.16721 3.1734 9.70176 3.45912 10.1213 3.87868C10.5409 4.29824 10.8266 4.83279 10.9424 5.41473C11.0581 5.99667 10.9987 6.59987 10.7716 7.14805C10.5446 7.69623 10.1601 8.16477 9.66671 8.49441C9.45812 8.63379 9.23403 8.74569 9 8.82843V10H7V7.00001H8V6.999C8.19758 6.999 8.39073 6.94041 8.55501 6.83064C8.7193 6.72087 8.84734 6.56485 8.92296 6.3823C8.99857 6.19976 9.01835 5.99889 8.9798 5.80511C8.94126 5.61132 8.84611 5.43331 8.7064 5.2936C8.56669 5.15389 8.38868 5.05874 8.1949 5.0202C8.00111 4.98165 7.80024 5.00143 7.6177 5.07705C7.43516 5.15266 7.27913 5.2807 7.16936 5.44499C7.05959 5.60927 7.001 5.80242 7.001 6H5ZM7 11H9V13H7V11Z" fill="white"/>
</svg>
