<svg width="16" height="16" viewBox="0 0 16 16" fill="none" xmlns="http://www.w3.org/2000/svg">
<path fill-rule="evenodd" clip-rule="evenodd" d="M3 16H15V8H3V16ZM10 10H8V14H10V10Z" fill="white"/>
<rect x="4" y="6" width="2" height="2" fill="white"/>
<path d="M4 6C4 5.01109 4.29325 4.04439 4.84265 3.22215C5.39206 2.3999 6.17295 1.75904 7.08658 1.3806C8.00021 1.00216 9.00555 0.903147 9.97545 1.09607C10.9454 1.289 11.8363 1.7652 12.5355 2.46447L11.1213 3.87868C10.7018 3.45912 10.1672 3.1734 9.58527 3.05764C9.00333 2.94189 8.40013 3.0013 7.85195 3.22836C7.30377 3.45542 6.83524 3.83994 6.50559 4.33329C6.17595 4.82664 6 5.40666 6 6L4 6Z" fill="white"/>
</svg>
