<svg width="16" height="16" viewBox="0 0 16 16" fill="none" xmlns="http://www.w3.org/2000/svg">
<g clip-path="url(#clip0_150:231)">
<path fill-rule="evenodd" clip-rule="evenodd" d="M9.17316 2.16999C10.7354 0.609476 13.2669 0.610005 14.8284 2.17157C16.3905 3.73367 16.3905 6.26633 14.8284 7.82843L8 14.6569L1.17157 7.82843C-0.390524 6.26633 -0.390524 3.73367 1.17157 2.17157C2.73331 0.609832 5.26517 0.609476 6.82736 2.1705L8 3.34315L9.17316 2.16999ZM13.4142 6.41421L8 11.8284L2.58579 6.41421C1.80474 5.63316 1.80474 4.36683 2.58579 3.58579C3.36683 2.80474 4.63316 2.80474 5.41421 3.58579L8 6.17157L10.5858 3.58579C11.3668 2.80474 12.6332 2.80474 13.4142 3.58579C14.1953 4.36683 14.1953 5.63316 13.4142 6.41421Z" fill="white"/>
</g>
<defs>
<clipPath id="clip0_150:231">
<rect width="16" height="16" fill="white"/>
</clipPath>
</defs>
</svg>
