<svg width="16" height="16" viewBox="0 0 16 16" fill="none" xmlns="http://www.w3.org/2000/svg">
<g clip-path="url(#clip0_211:82)">
<path fill-rule="evenodd" clip-rule="evenodd" d="M7.00002 -9.59048e-06V6.99999L4.66246 4.66243C4.00236 5.32254 3.55282 6.16356 3.3707 7.07914C3.18858 7.99473 3.28205 8.94377 3.6393 9.80624C3.99654 10.6687 4.60152 11.4059 5.37772 11.9245C6.15392 12.4431 7.06648 12.72 8.00001 12.72C8.93353 12.72 9.8461 12.4431 10.6223 11.9245C11.3985 11.4059 12.0035 10.6687 12.3607 9.80624C12.718 8.94377 12.8114 7.99473 12.6293 7.07914C12.4472 6.16355 11.9977 5.32253 11.3376 4.66243L13.6569 2.34312C14.7757 3.46194 15.5376 4.8874 15.8463 6.43925C16.155 7.9911 15.9965 9.59963 15.391 11.0614C14.7855 12.5232 13.7602 13.7727 12.4446 14.6517C11.129 15.5308 9.58226 16 8.00001 16C6.41776 16 4.87104 15.5308 3.55544 14.6517C2.23985 13.7727 1.21447 12.5232 0.60897 11.0614C0.00346901 9.59963 -0.154957 7.99109 0.153725 6.43925C0.462406 4.8874 1.22433 3.46194 2.34314 2.34313L2.14286e-05 1.2191e-05L7.00002 -9.59048e-06Z" fill="white"/>
</g>
<defs>
<clipPath id="clip0_211:82">
<rect width="16" height="16" fill="white"/>
</clipPath>
</defs>
</svg>
