<svg width="16" height="16" viewBox="0 0 16 16" fill="none" xmlns="http://www.w3.org/2000/svg">
<path fill-rule="evenodd" clip-rule="evenodd" d="M2 16H14V8H2V16ZM9 10H7V14H9V10Z" fill="white"/>
<rect x="11" y="6" width="2" height="2" fill="white"/>
<rect x="3" y="6" width="2" height="2" fill="white"/>
<path d="M3 6C3 4.67392 3.52678 3.40215 4.46447 2.46447C5.40215 1.52678 6.67392 1 8 1C9.32608 1 10.5979 1.52678 11.5355 2.46447C12.4732 3.40215 13 4.67392 13 6L11 6C11 5.20435 10.6839 4.44129 10.1213 3.87868C9.55871 3.31607 8.79565 3 8 3C7.20435 3 6.44129 3.31607 5.87868 3.87868C5.31607 4.44129 5 5.20435 5 6H3Z" fill="white"/>
</svg>
