<svg width="16" height="16" viewBox="0 0 16 16" fill="none" xmlns="http://www.w3.org/2000/svg">
<g clip-path="url(#clip0_150:199)">
<path fill-rule="evenodd" clip-rule="evenodd" d="M7.00002 -9.59048e-06V6.99999L4.54932 4.5493C3.86684 5.23178 3.40207 6.1013 3.21377 7.04793C3.02548 7.99456 3.12212 8.97576 3.49147 9.86746C3.86083 10.7592 4.48631 11.5213 5.28882 12.0575C6.09134 12.5938 7.03483 12.88 8.00001 12.88C8.96518 12.88 9.90868 12.5938 10.7112 12.0575C11.5137 11.5213 12.1392 10.7592 12.5085 9.86747C12.8779 8.97576 12.9745 7.99456 12.7862 7.04793C12.5979 6.1013 12.1332 5.23177 11.4507 4.54929L13.6569 2.34312C14.7757 3.46194 15.5376 4.8874 15.8463 6.43925C16.155 7.9911 15.9965 9.59963 15.391 11.0614C14.7855 12.5232 13.7602 13.7727 12.4446 14.6517C11.129 15.5308 9.58226 16 8.00001 16C6.41776 16 4.87104 15.5308 3.55544 14.6517C2.23985 13.7727 1.21447 12.5232 0.60897 11.0614C0.00346918 9.59963 -0.154957 7.99109 0.153725 6.43925C0.462406 4.8874 1.22433 3.46194 2.34314 2.34313L2.14286e-05 1.2191e-05L7.00002 -9.59048e-06Z" fill="white"/>
</g>
<defs>
<clipPath id="clip0_150:199">
<rect width="16" height="16" fill="white"/>
</clipPath>
</defs>
</svg>
