<svg width="16" height="16" viewBox="0 0 16 16" fill="none" xmlns="http://www.w3.org/2000/svg">
<g clip-path="url(#clip0_150:203)">
<path fill-rule="evenodd" clip-rule="evenodd" d="M7.00002 -9.59048e-06V6.99999L4.54932 4.5493C3.86684 5.23178 3.40207 6.10131 3.21377 7.04793C3.02548 7.99456 3.12212 8.97576 3.49147 9.86747C3.86083 10.7592 4.48631 11.5213 5.28882 12.0575C6.09134 12.5938 7.03483 12.88 8.00001 12.88L8.00001 16C6.41776 16 4.87104 15.5308 3.55544 14.6517C2.23985 13.7727 1.21447 12.5232 0.60897 11.0614C0.00346918 9.59963 -0.154957 7.9911 0.153725 6.43925C0.462406 4.8874 1.22433 3.46194 2.34314 2.34313L2.14286e-05 1.2191e-05L7.00002 -9.59048e-06Z" fill="white"/>
<path fill-rule="evenodd" clip-rule="evenodd" d="M12.4446 1.34823C11.129 0.469174 9.58227 -1.81615e-05 8.00002 -1.79929e-05L8.00002 3.11998C8.96519 3.11998 9.90869 3.40619 10.7112 3.94241C11.5137 4.47863 12.1392 5.24078 12.5086 6.13249C12.8779 7.02419 12.9745 8.0054 12.7862 8.95202C12.598 9.89865 12.1332 10.7682 11.4507 11.4507L13.6569 13.6568C14.7757 12.538 15.5376 11.1126 15.8463 9.56071C16.155 8.00886 15.9966 6.40033 15.3911 4.93852C14.7856 3.47671 13.7602 2.22728 12.4446 1.34823ZM9.00001 16L9.00001 9.00001L16 16L9.00001 16Z" fill="white"/>
</g>
<defs>
<clipPath id="clip0_150:203">
<rect width="16" height="16" fill="white"/>
</clipPath>
</defs>
</svg>
