<svg width="16" height="16" viewBox="0 0 16 16" fill="none" xmlns="http://www.w3.org/2000/svg">
<g clip-path="url(#clip0_211:86)">
<path fill-rule="evenodd" clip-rule="evenodd" d="M7.00002 -9.59048e-06L7.00002 6.99999L4.66246 4.66243C4.00236 5.32254 3.55282 6.16356 3.3707 7.07914C3.18858 7.99473 3.28205 8.94377 3.6393 9.80624C3.99654 10.6687 4.60152 11.4059 5.37772 11.9245C6.15392 12.4431 7.06648 12.72 8.00001 12.72L8.00001 16C6.41776 16 4.87104 15.5308 3.55544 14.6517C2.23985 13.7727 1.21447 12.5232 0.608971 11.0614C0.00346926 9.59963 -0.154957 7.99109 0.153725 6.43925C0.462406 4.8874 1.22433 3.46194 2.34314 2.34313L2.14286e-05 1.2191e-05L7.00002 -9.59048e-06Z" fill="white"/>
<path fill-rule="evenodd" clip-rule="evenodd" d="M12.4446 1.34823C11.129 0.469174 9.58227 -1.80772e-05 8.00002 -1.79929e-05L8.00002 3.27998C8.93355 3.27998 9.84611 3.5568 10.6223 4.07545C11.3985 4.59409 12.0035 5.33125 12.3607 6.19372C12.718 7.05618 12.8114 8.00522 12.6293 8.92081C12.4472 9.8364 11.9977 10.6774 11.3376 11.3375L13.6569 13.6568C14.7757 12.538 15.5376 11.1126 15.8463 9.56071C16.155 8.00886 15.9966 6.40033 15.3911 4.93852C14.7856 3.47671 13.7602 2.22728 12.4446 1.34823ZM9.00001 16V9.00001L16 16L9.00001 16Z" fill="white"/>
</g>
<defs>
<clipPath id="clip0_211:86">
<rect width="16" height="16" fill="white"/>
</clipPath>
</defs>
</svg>
