<svg width="16" height="16" viewBox="0 0 16 16" fill="none" xmlns="http://www.w3.org/2000/svg">
<path fill-rule="evenodd" clip-rule="evenodd" d="M2 16H14V8H2V16ZM9 10H7V14H9V10Z" fill="white"/>
<rect x="3" y="6" width="2" height="2" fill="white"/>
<path d="M3 6C3 5.01109 3.29325 4.04439 3.84265 3.22215C4.39206 2.3999 5.17295 1.75904 6.08658 1.3806C7.00021 1.00216 8.00555 0.903147 8.97545 1.09607C9.94536 1.289 10.8363 1.7652 11.5355 2.46447L10.1213 3.87868C9.70176 3.45912 9.16721 3.1734 8.58527 3.05764C8.00333 2.94189 7.40013 3.0013 6.85195 3.22836C6.30377 3.45542 5.83524 3.83994 5.50559 4.33329C5.17595 4.82664 5 5.40666 5 6H3Z" fill="white"/>
</svg>
